{"glyphs":{"0":{"ha":1493,"x_min":0,"x_max":0,"o":"m 717 1051 b 75 540 175 1051 75 740 l 75 499 b 717 -18 75 303 175 -18 l 778 -18 b 1418 499 1321 -18 1418 303 l 1418 540 b 778 1051 1418 739 1322 1051 z m 1026 531 l 1026 515 b 747 268 1026 426 989 268 b 467 515 507 268 467 426 l 467 531 b 746 771 467 617 500 771 b 1026 531 990 771 1026 617 z "},"1":{"ha":817,"x_min":0,"x_max":0,"o":"m 322 615 l 322 0 l 694 0 l 694 1033 l 411 1033 b 68 860 363 904 290 861 l 68 615 z "},"2":{"ha":1347,"x_min":0,"x_max":0,"o":"m 1276 0 l 1276 276 l 389 276 b 619 364 389 299 419 331 b 776 390 665 372 724 383 b 1258 707 1114 439 1258 515 l 1258 718 b 715 1047 1258 907 1142 1047 l 639 1047 b 96 679 154 1047 96 817 l 96 669 l 479 669 b 679 801 482 714 493 801 b 867 719 839 801 867 763 l 867 717 b 685 619 867 678 842 654 l 535 583 b 78 181 129 483 78 338 l 78 0 z "},"3":{"ha":1364,"x_min":0,"x_max":0,"o":"m 700 -15 b 1297 343 1214 -15 1297 186 l 1297 351 b 1092 590 1297 501 1193 569 b 1261 776 1178 613 1261 667 l 1261 786 b 696 1049 1261 901 1193 1049 l 614 1049 b 69 721 118 1049 69 819 l 69 704 l 443 704 b 663 797 447 726 450 797 b 892 715 876 797 892 751 l 892 714 b 786 653 892 683 875 653 l 483 653 l 483 418 l 788 418 b 906 350 888 418 906 388 l 906 347 b 671 251 906 307 882 251 b 438 365 457 251 442 333 l 56 365 l 56 346 b 629 -15 56 233 117 -15 z "},"4":{"ha":1397,"x_min":0,"x_max":0,"o":"m 63 196 l 740 196 l 740 0 l 1108 0 l 1108 196 l 1346 196 l 1346 456 l 1108 456 l 1108 1040 l 646 1040 l 63 415 z m 740 456 l 413 456 l 740 808 z "},"5":{"ha":1315,"x_min":0,"x_max":0,"o":"m 701 -15 b 1250 344 1175 -15 1250 201 l 1250 361 b 810 683 1250 507 1175 683 l 793 683 b 476 603 579 683 493 618 l 476 774 l 1179 774 l 1179 1033 l 107 1033 l 107 399 l 479 399 b 676 463 485 415 507 463 b 878 363 832 463 878 421 l 878 356 b 676 251 878 300 832 251 b 481 318 504 251 486 301 l 90 318 l 90 303 b 643 -15 90 208 139 -15 z "},"6":{"ha":1411,"x_min":0,"x_max":0,"o":"m 761 -15 b 1346 343 1264 -15 1346 193 l 1346 367 b 849 654 1346 514 1239 654 l 831 654 b 461 565 579 654 492 589 l 461 575 b 717 797 461 658 493 797 b 929 718 896 797 921 740 l 1303 718 l 1303 719 b 733 1046 1303 853 1215 1046 l 676 1046 b 75 532 147 1046 75 692 l 75 499 b 689 -15 75 326 144 -15 z m 490 338 l 490 340 b 728 440 490 388 521 440 b 960 340 924 440 960 388 l 960 338 b 728 235 960 292 939 235 b 490 338 521 235 490 289 z "},"7":{"ha":1290,"x_min":0,"x_max":0,"o":"m 86 1033 l 86 600 l 454 600 l 454 768 l 888 768 b 675 543 888 747 794 661 b 457 104 481 351 457 268 l 457 0 l 861 0 l 861 13 b 1011 482 861 169 871 264 b 1221 786 1100 617 1176 728 l 1221 1033 z "},"8":{"ha":1392,"x_min":0,"x_max":0,"o":"m 664 -17 l 726 -17 b 1325 296 1268 -17 1325 181 l 1325 308 b 1085 542 1325 435 1225 518 b 1297 751 1207 560 1297 633 l 1297 763 b 726 1043 1297 871 1257 1043 l 664 1043 b 93 763 133 1043 93 871 l 93 751 b 311 542 93 642 193 558 b 67 308 178 518 67 435 l 67 296 b 664 -17 67 181 121 -17 z m 904 732 l 904 731 b 694 649 904 692 881 649 b 485 731 513 649 485 692 l 485 732 b 694 814 485 771 508 814 b 904 732 882 814 904 771 z m 932 331 l 932 329 b 694 231 932 288 904 231 b 458 329 486 231 458 288 l 458 331 b 694 424 458 374 483 424 b 932 331 904 424 932 374 z "},"9":{"ha":1411,"x_min":0,"x_max":0,"o":"m 921 693 l 921 690 b 685 590 921 643 892 590 b 451 690 488 590 451 643 l 451 693 b 685 796 451 738 472 796 b 921 693 892 796 921 740 z m 683 -15 l 743 -15 b 1336 506 1269 -15 1336 339 l 1336 539 b 722 1046 1336 717 1263 1046 l 646 1046 b 65 703 150 1046 65 850 l 65 681 b 563 376 65 519 175 376 l 582 376 b 950 465 832 376 921 442 l 950 456 b 694 233 950 372 918 233 b 485 311 511 233 489 293 l 110 311 l 110 310 b 683 -15 110 183 194 -15 z "}," ":{"ha":419,"x_min":0,"x_max":0,"o":""},"!":{"ha":600,"x_min":0,"x_max":0,"o":"m 74 1033 l 214 374 l 388 374 l 526 1033 z m 490 299 l 110 299 l 110 0 l 490 0 z "},"\"":{"ha":899,"x_min":0,"x_max":0,"o":"m 799 1033 l 513 1033 l 513 585 l 799 585 z m 388 1033 l 101 1033 l 101 585 l 388 585 z "},"'":{"ha":492,"x_min":0,"x_max":0,"o":"m 390 1033 l 101 1033 l 101 583 l 390 583 z "},",":{"ha":564,"x_min":0,"x_max":0,"o":"m 390 -214 b 476 65 426 -153 476 -40 l 476 308 l 88 308 l 88 0 l 265 0 b 168 -214 250 -61 206 -154 z "},"-":{"ha":674,"x_min":0,"x_max":0,"o":"m 90 557 l 90 279 l 583 279 l 583 557 z "},".":{"ha":564,"x_min":0,"x_max":0,"o":"m 476 310 l 88 310 l 88 0 l 476 0 z "},"?":{"ha":1231,"x_min":0,"x_max":0,"o":"m 749 374 l 749 381 b 817 447 749 415 760 432 l 888 465 b 1175 733 1092 514 1175 599 l 1175 747 b 640 1046 1175 894 1092 1044 l 582 1046 b 53 714 93 1046 53 835 l 53 694 l 438 694 b 621 806 439 731 444 806 b 789 743 761 806 789 781 b 685 672 789 710 767 694 l 603 650 b 397 428 426 603 397 533 l 397 374 z m 763 299 l 383 299 l 383 0 l 763 0 z "},"B":{"ha":1481,"x_min":0,"x_max":0,"o":"m 117 0 l 979 0 b 1421 304 1317 0 1421 135 l 1421 318 b 1164 572 1421 496 1272 557 b 1364 782 1242 583 1364 642 l 1364 792 b 978 1033 1364 922 1274 1033 l 117 1033 z m 874 792 b 978 718 951 792 978 763 l 978 715 b 874 642 978 672 953 642 l 492 642 l 492 792 z m 901 418 b 1018 342 1000 418 1018 382 l 1018 336 b 901 253 1018 297 1000 253 l 492 253 l 492 418 z "},"C":{"ha":1490,"x_min":0,"x_max":0,"o":"m 781 -17 b 1421 411 1324 -17 1421 250 l 1421 422 l 1033 422 b 751 268 1031 400 1007 268 b 463 514 513 268 463 415 l 463 531 b 750 769 463 631 510 769 b 1033 614 1007 769 1031 639 l 1421 614 l 1421 625 b 781 1050 1421 800 1322 1050 l 718 1050 b 71 540 181 1050 71 744 l 71 499 b 718 -17 71 296 182 -17 z "},"D":{"ha":1483,"x_min":0,"x_max":0,"o":"m 117 0 l 725 0 b 1414 504 1300 0 1414 268 l 1414 546 b 725 1033 1414 779 1289 1033 l 117 1033 z m 492 768 l 681 768 b 1022 524 988 768 1022 624 l 1022 515 b 681 267 1022 411 989 267 l 492 267 z "},"E":{"ha":1250,"x_min":0,"x_max":0,"o":"m 117 1033 l 117 0 l 1158 0 l 1158 253 l 490 253 l 490 394 l 1128 394 l 1128 651 l 490 651 l 490 783 l 1149 783 l 1149 1033 z "},"F":{"ha":1224,"x_min":0,"x_max":0,"o":"m 117 1033 l 117 0 l 492 0 l 492 365 l 1118 365 l 1118 625 l 492 625 l 492 778 l 1138 778 l 1138 1033 z "},"G":{"ha":1544,"x_min":0,"x_max":0,"o":"m 708 -15 b 1129 132 974 -15 1096 96 b 1179 0 1149 100 1174 35 l 1444 0 l 1444 578 l 747 578 l 747 385 l 1043 385 b 760 260 1038 353 983 260 b 460 514 526 260 460 397 l 460 528 b 760 774 460 650 521 774 b 1039 664 990 774 1029 690 l 1432 664 l 1432 669 b 783 1050 1432 819 1322 1050 l 735 1050 b 71 535 204 1050 71 763 l 71 507 b 685 -15 71 271 210 -15 z "},"H":{"ha":1506,"x_min":0,"x_max":0,"o":"m 117 0 l 492 0 l 492 392 l 1015 392 l 1015 0 l 1389 0 l 1389 1033 l 1015 1033 l 1015 669 l 492 669 l 492 1033 l 117 1033 z "},"I":{"ha":608,"x_min":0,"x_max":0,"o":"m 492 1033 l 117 1033 l 117 0 l 492 0 z "},"J":{"ha":1293,"x_min":0,"x_max":0,"o":"m 586 -18 l 642 -18 b 1181 479 1097 -18 1181 276 l 1181 1033 l 806 1033 l 806 494 b 613 276 806 376 760 276 l 608 276 b 424 465 450 276 428 408 l 47 465 l 47 458 b 586 -18 47 265 128 -18 z "},"K":{"ha":1369,"x_min":0,"x_max":0,"o":"m 490 0 l 490 461 l 917 0 l 1390 0 l 853 567 l 1356 1033 l 915 1033 l 490 633 l 490 1033 l 117 1033 l 117 0 z "},"L":{"ha":1178,"x_min":0,"x_max":0,"o":"m 117 1033 l 117 0 l 1110 0 l 1110 293 l 492 293 l 492 1033 z "},"M":{"ha":1808,"x_min":0,"x_max":0,"o":"m 117 0 l 478 0 l 478 646 l 782 0 l 1018 0 l 1325 646 l 1325 0 l 1692 0 l 1692 1033 l 1197 1033 l 913 443 l 633 1033 l 117 1033 z "},"N":{"ha":1538,"x_min":0,"x_max":0,"o":"m 1061 0 l 1421 0 l 1421 1033 l 1056 1033 l 1056 456 l 499 1033 l 117 1033 l 117 0 l 482 0 l 482 596 z "},"O":{"ha":1535,"x_min":0,"x_max":0,"o":"m 736 1051 b 71 540 186 1051 72 754 l 71 499 b 736 -18 71 288 186 -18 l 799 -18 b 1464 499 1351 -18 1464 288 l 1464 540 b 799 1051 1464 754 1350 1051 z m 1072 529 l 1072 514 b 768 267 1072 414 1028 267 b 463 514 510 267 463 414 l 463 529 b 767 771 463 628 506 771 b 1072 529 1029 771 1072 628 z "},"P":{"ha":1419,"x_min":0,"x_max":0,"o":"m 871 308 b 1356 667 1251 308 1356 461 l 1356 685 b 871 1033 1356 889 1256 1033 l 117 1033 l 117 0 l 492 0 l 492 308 z m 492 769 l 836 769 b 967 674 938 769 967 724 l 967 671 b 836 572 967 617 938 572 l 492 572 z "},"Q":{"ha":1535,"x_min":0,"x_max":0,"o":"m 624 -215 l 1153 -215 l 971 -4 b 1464 499 1379 53 1464 315 l 1464 540 b 799 1051 1464 749 1357 1051 l 735 1051 b 71 540 178 1051 71 750 l 71 499 b 624 -11 71 307 165 28 z m 1072 529 l 1072 514 b 768 264 1072 414 1029 264 b 461 514 508 264 461 415 l 461 529 b 767 772 461 628 503 772 b 1072 529 1029 772 1072 625 z "},"R":{"ha":1478,"x_min":0,"x_max":0,"o":"m 492 769 l 874 769 b 994 685 972 769 994 729 l 994 682 b 874 593 994 636 972 593 l 492 593 z m 1151 497 b 1383 742 1269 521 1383 594 l 1383 751 b 951 1033 1383 886 1329 1033 l 117 1033 l 117 0 l 492 0 l 492 324 l 819 324 b 1013 151 967 324 1013 285 l 1013 64 b 1022 0 1013 25 1018 6 l 1407 0 l 1407 7 b 1392 92 1399 21 1392 38 l 1392 251 b 1151 497 1392 411 1285 476 z "},"S":{"ha":1372,"x_min":0,"x_max":0,"o":"m 710 -17 b 1299 326 1219 -17 1299 158 l 1299 343 b 804 654 1299 526 1207 643 l 656 657 b 471 738 501 663 471 693 b 669 815 471 783 503 815 l 681 815 b 886 717 853 815 881 757 l 1282 717 l 1282 724 b 707 1047 1282 875 1203 1047 l 647 1047 b 83 735 197 1047 83 913 l 83 724 b 567 408 83 558 185 417 l 711 404 b 907 317 879 400 907 365 b 693 222 907 272 881 222 l 685 222 b 472 344 492 222 476 306 l 69 344 l 69 336 b 675 -17 69 199 125 -17 z "},"T":{"ha":1329,"x_min":0,"x_max":0,"o":"m 478 0 l 851 0 l 851 749 l 1265 749 l 1265 1033 l 64 1033 l 64 749 l 478 749 z "},"U":{"ha":1519,"x_min":0,"x_max":0,"o":"m 742 -15 l 785 -15 b 1407 540 1351 -15 1407 336 l 1407 1033 l 1035 1033 l 1035 543 b 765 289 1035 425 997 289 l 760 289 b 485 543 525 289 485 425 l 485 1033 l 113 1033 l 113 540 b 742 -15 113 336 153 -15 z "},"V":{"ha":1450,"x_min":0,"x_max":0,"o":"m 969 0 l 1451 1033 l 1058 1033 l 746 342 l 433 1033 l -1 1033 l 506 0 z "},"W":{"ha":1978,"x_min":0,"x_max":0,"o":"m 793 0 l 993 646 l 1192 0 l 1631 0 l 1975 1033 l 1610 1033 l 1407 351 l 1207 1033 l 807 1033 l 607 351 l 404 1033 l 3 1033 l 357 0 z "},"X":{"ha":1403,"x_min":0,"x_max":0,"o":"m 961 0 l 1410 0 l 986 536 l 1382 1033 l 956 1033 l 714 729 l 474 1033 l 10 1033 l 414 536 l -7 0 l 435 0 l 697 331 z "},"Y":{"ha":1392,"x_min":0,"x_max":0,"o":"m 518 0 l 890 0 l 890 368 l 1413 1033 l 1008 1033 l 719 667 l 435 1033 l -21 1033 l 518 369 z "},"Z":{"ha":1333,"x_min":0,"x_max":0,"o":"m 1240 0 l 1240 286 l 608 286 l 1235 800 l 1235 1033 l 100 1033 l 100 750 l 694 750 l 94 235 l 94 0 z "},"a":{"ha":1163,"x_min":0,"x_max":0,"o":"m 519 178 b 413 244 447 178 413 204 l 413 247 b 556 329 413 292 442 311 b 696 354 615 339 671 349 l 696 317 b 519 178 696 256 646 178 z m 706 97 b 838 0 721 54 760 0 l 1126 0 l 1126 246 l 1083 246 b 1046 286 1054 246 1046 258 l 1046 525 b 585 794 1046 646 1008 794 l 538 794 b 79 526 122 794 79 631 l 79 525 l 431 525 b 561 597 432 544 440 597 l 567 597 b 696 535 679 597 696 568 l 696 533 b 642 489 696 506 682 492 l 422 476 b 60 240 149 458 60 383 l 60 233 b 381 -17 60 89 164 -17 l 404 -17 b 706 97 596 -17 679 68 z "},"b":{"ha":1251,"x_min":0,"x_max":0,"o":"m 754 -15 l 769 -15 b 1188 383 1096 -15 1188 197 l 1188 404 b 790 790 1188 597 1089 790 l 775 790 b 458 685 590 790 494 717 l 458 1051 l 101 1051 l 101 0 l 433 0 b 454 94 438 28 444 65 b 754 -15 483 64 575 -15 z m 815 388 b 642 218 815 317 779 218 l 633 218 b 457 386 496 218 457 314 l 457 394 b 633 558 457 461 496 558 l 642 558 b 815 393 781 558 815 460 z "},"c":{"ha":1196,"x_min":0,"x_max":0,"o":"m 1135 321 l 1135 322 l 763 322 b 608 213 760 297 739 213 l 597 213 b 433 394 472 213 433 307 l 433 396 b 596 567 433 481 471 567 l 607 567 b 763 467 735 567 760 492 l 1135 467 l 1135 468 b 622 796 1135 574 1093 796 l 568 796 b 61 404 135 796 61 561 l 61 385 b 569 -21 61 225 129 -21 l 638 -21 b 1135 321 1085 -21 1135 204 z "},"d":{"ha":1251,"x_min":0,"x_max":0,"o":"m 608 558 l 621 558 b 794 393 753 558 794 464 l 794 386 b 621 218 794 313 753 218 l 608 218 b 436 388 476 218 436 315 l 436 392 b 608 558 436 464 474 558 z m 792 1051 l 792 707 b 496 790 760 732 671 790 l 481 790 b 64 403 165 790 64 583 l 64 369 b 482 -15 64 186 172 -15 l 499 -15 b 793 92 679 -15 765 63 l 793 0 l 1149 0 l 1149 1051 z "},"e":{"ha":1219,"x_min":0,"x_max":0,"o":"m 608 599 b 779 481 746 599 778 540 l 433 481 b 608 599 450 556 494 599 z m 1156 253 l 781 253 b 628 193 775 240 751 193 b 431 325 499 193 446 242 l 1158 325 l 1158 354 b 633 794 1158 576 1078 794 l 571 794 b 61 397 153 794 61 575 l 61 378 b 586 -19 61 206 150 -19 l 647 -19 b 1156 253 1086 -19 1150 161 z "},"f":{"ha":772,"x_min":0,"x_max":0,"o":"m 721 1051 l 468 1051 b 210 815 264 1051 210 968 l 210 775 l 51 775 l 51 543 l 210 543 l 210 0 l 561 0 l 561 543 l 721 543 l 721 775 l 561 775 l 561 807 b 615 863 561 846 576 863 l 721 863 z "},"g":{"ha":1254,"x_min":0,"x_max":0,"o":"m 611 565 l 622 565 b 797 411 754 565 797 476 l 797 404 b 622 250 797 335 757 250 l 611 250 b 436 407 478 250 436 336 l 436 410 b 611 565 436 482 476 565 z m 610 -285 l 650 -285 b 1153 88 1032 -285 1153 -126 l 1153 775 l 796 775 l 796 703 b 493 792 764 729 679 792 l 478 792 b 64 421 171 792 64 607 l 64 396 b 488 26 64 214 168 26 l 506 26 b 796 126 688 26 769 97 l 796 76 b 646 -64 796 -6 750 -64 l 636 -64 b 503 -21 531 -64 510 -36 l 110 -21 l 110 -25 b 610 -285 110 -119 157 -285 z "},"h":{"ha":1231,"x_min":0,"x_max":0,"o":"m 101 0 l 458 0 l 458 375 b 619 535 458 465 511 535 b 774 388 732 535 774 468 l 774 0 l 1132 0 l 1132 501 b 800 796 1132 649 1032 796 l 786 796 b 458 657 599 796 500 704 l 458 1051 l 101 1051 z "},"i":{"ha":561,"x_min":0,"x_max":0,"o":"m 458 1057 l 101 1057 l 101 847 l 458 847 z m 458 775 l 101 775 l 101 0 l 458 0 z "},"j":{"ha":561,"x_min":0,"x_max":0,"o":"m 458 1057 l 101 1057 l 101 847 l 458 847 z m -21 -35 l -21 -262 l 264 -262 b 458 -49 393 -262 458 -181 l 458 775 l 101 775 l 101 19 b 53 -35 101 -17 92 -35 z "},"k":{"ha":1103,"x_min":0,"x_max":0,"o":"m 458 0 l 458 339 l 707 0 l 1111 0 l 788 428 l 1076 775 l 685 775 l 458 485 l 458 1051 l 101 1051 l 101 0 z "},"l":{"ha":561,"x_min":0,"x_max":0,"o":"m 458 1051 l 101 1051 l 101 0 l 458 0 z "},"m":{"ha":1847,"x_min":0,"x_max":0,"o":"m 458 0 l 458 381 b 604 535 458 469 504 535 b 747 399 714 535 747 465 l 747 0 l 1103 0 l 1103 381 b 1250 535 1103 468 1150 535 b 1392 399 1357 535 1392 465 l 1392 0 l 1747 0 l 1747 503 b 1421 796 1747 639 1668 796 l 1410 796 b 1069 640 1244 796 1132 715 b 775 796 1025 726 933 796 l 769 796 b 456 653 589 796 488 697 l 456 775 l 101 775 l 101 0 z "},"n":{"ha":1231,"x_min":0,"x_max":0,"o":"m 101 0 l 458 0 l 458 375 b 619 535 458 465 511 535 b 774 388 732 535 774 468 l 774 0 l 1132 0 l 1132 501 b 800 796 1132 649 1032 796 l 786 796 b 456 654 599 796 499 704 l 456 775 l 101 775 z "},"o":{"ha":1231,"x_min":0,"x_max":0,"o":"m 592 -21 l 638 -21 b 1169 374 1131 -21 1169 238 l 1169 396 b 639 796 1169 531 1131 796 l 590 796 b 61 394 115 796 61 531 l 61 375 b 592 -21 61 238 115 -21 z m 621 213 l 610 213 b 433 390 465 213 433 318 b 610 567 433 468 467 567 l 621 567 b 797 390 760 567 797 468 b 621 213 797 319 760 213 z "},"p":{"ha":1251,"x_min":0,"x_max":0,"o":"m 815 383 b 640 218 815 311 776 218 l 635 218 b 457 383 499 218 457 308 l 457 392 b 635 558 457 461 499 558 l 640 558 b 815 390 776 558 815 461 z m 101 -262 l 458 -262 l 458 86 b 756 -15 490 58 576 -15 l 768 -15 b 1189 379 1090 -15 1189 200 l 1189 403 b 782 790 1189 597 1093 790 l 771 790 b 458 681 590 790 494 717 l 458 775 l 101 775 z "},"q":{"ha":1251,"x_min":0,"x_max":0,"o":"m 492 790 l 478 790 b 64 401 167 790 64 581 l 64 378 b 483 -15 64 193 169 -15 l 501 -15 b 793 92 679 -15 768 65 l 793 -262 l 1149 -262 l 1149 775 l 828 775 b 808 686 825 749 818 714 b 492 790 776 715 688 790 z m 610 558 l 621 558 b 794 393 756 558 794 464 l 794 385 b 621 218 794 310 754 218 l 610 218 b 438 386 478 218 438 313 l 438 393 b 610 558 438 464 479 558 z "},"r":{"ha":1071,"x_min":0,"x_max":0,"o":"m 458 0 l 458 400 b 563 533 458 488 493 533 b 656 406 631 533 656 490 l 656 368 l 1011 368 b 1015 481 1013 397 1015 429 b 740 793 1015 642 954 793 l 729 793 b 456 649 558 793 481 690 l 456 775 l 101 775 l 101 0 z "},"s":{"ha":1117,"x_min":0,"x_max":0,"o":"m 565 -18 b 1054 242 994 -18 1054 115 l 1054 254 b 676 492 1054 388 985 478 l 551 496 b 428 551 456 500 428 518 b 544 604 428 585 451 604 l 551 604 b 672 543 653 604 667 565 l 1042 543 l 1042 544 b 564 792 1042 667 974 792 l 532 792 b 68 561 158 792 68 690 l 68 553 b 431 307 68 432 132 324 l 553 297 b 683 240 661 290 683 274 b 561 183 683 210 658 183 l 558 183 b 435 250 453 183 438 228 l 53 250 l 53 246 b 526 -18 53 157 83 -18 z "},"t":{"ha":790,"x_min":0,"x_max":0,"o":"m 719 250 l 636 250 b 561 329 575 250 561 272 l 561 543 l 719 543 l 719 775 l 561 775 l 561 1008 l 208 1008 l 208 775 l 51 775 l 51 543 l 208 543 l 208 206 b 419 0 208 68 297 0 l 719 0 z "},"u":{"ha":1224,"x_min":0,"x_max":0,"o":"m 1121 775 l 764 775 l 764 400 b 607 242 764 310 711 242 b 457 388 496 242 457 310 l 457 775 l 99 775 l 99 275 b 426 -21 99 126 196 -21 l 440 -21 b 767 121 624 -21 726 74 l 767 0 l 1121 0 z "},"v":{"ha":1147,"x_min":0,"x_max":0,"o":"m 350 0 l 813 0 l 1142 775 l 769 775 l 586 268 l 404 775 l 6 775 z "},"w":{"ha":1692,"x_min":0,"x_max":0,"o":"m 715 0 l 847 436 l 989 0 l 1422 0 l 1679 775 l 1329 775 l 1199 293 l 1051 775 l 669 775 l 526 292 l 390 775 l 13 775 l 289 0 z "},"x":{"ha":1117,"x_min":0,"x_max":0,"o":"m 721 0 l 1122 0 l 819 399 l 1111 775 l 726 775 l 568 563 l 408 775 l -3 775 l 299 397 l -3 0 l 389 0 l 554 225 z "},"y":{"ha":1115,"x_min":0,"x_max":0,"o":"m 153 -262 l 482 -262 b 767 -64 631 -262 713 -197 l 1111 775 l 746 775 l 581 269 l 397 775 l 4 775 l 343 47 b 365 -14 358 14 365 -1 b 332 -37 365 -31 354 -37 l 153 -37 z "},"z":{"ha":1082,"x_min":0,"x_max":0,"o":"m 1004 0 l 1004 242 l 515 242 l 988 557 l 988 775 l 88 775 l 88 540 l 539 540 l 82 219 l 82 0 z "},"‘":{"ha":547,"x_min":0,"x_max":0,"o":"m 160 1033 b 83 779 129 981 83 875 l 83 567 l 465 567 l 465 829 l 293 829 b 381 1033 308 886 346 978 z "},"’":{"ha":547,"x_min":0,"x_max":0,"o":"m 386 567 b 463 819 417 619 463 725 l 463 1033 l 82 1033 l 82 769 l 253 769 b 165 567 239 713 200 624 z "},"“":{"ha":1039,"x_min":0,"x_max":0,"o":"m 651 1033 b 575 779 621 981 575 875 l 575 567 l 957 567 l 957 829 l 786 829 b 872 1033 800 886 838 978 z m 160 1033 b 83 779 129 981 83 875 l 83 567 l 465 567 l 465 829 l 293 829 b 381 1033 308 886 346 978 z "},"”":{"ha":1039,"x_min":0,"x_max":0,"o":"m 878 567 b 954 819 910 619 954 725 l 954 1033 l 572 1033 l 572 769 l 744 769 b 657 567 731 713 692 624 z m 386 567 b 463 819 417 619 463 725 l 463 1033 l 82 1033 l 82 769 l 253 769 b 165 567 239 713 200 624 z "},"A":{"ha":1446,"x_min":0,"x_max":0,"o":"m 869 410 l 553 410 l 710 763 z m 1054 0 l 1451 0 l 963 1033 l 472 1033 l -6 0 l 368 0 l 443 168 l 978 168 z "}}}
